# xmcd CD Database Entry
#
# Track frame offsets:
# 150
# 251022
# 271021
# 292868
#
# Disc length: 4158 seconds
#
# Revision: 1
# Processed by: cddbd v1.4b41PL1 Copyright (c) Steve Scherf et al.
# Submitted via: tcd 2.0b
#
DISCID=2f103c04
DTITLE=모름 - 모름
DYEAR=1900
DGENRE=
TTITLE0=1번 트랙
TTITLE1=2번 트랙
TTITLE2=3번 트랙
TTITLE3=4번 트랙
EXTD=
EXTT0=
EXTT1=
EXTT2=
EXTT3=
PLAYORDER=
